<svg xmlns="http://www.w3.org/2000/svg" xmlns:xlink="http://www.w3.org/1999/xlink"
  viewBox="0 0 123.75 118.21">
  <defs>
    <style>.cls-1{fill:url(#linear-gradient);}</style>
    <linearGradient id="linear-gradient" x1="61.88" x2="61.88" y2="118.21"
      gradientUnits="userSpaceOnUse">
      <stop offset="0" stop-color="#fff" />
      <stop offset="1" stop-color="#b8b8b8" />
    </linearGradient>
  </defs>
  <g id="Layer_2" data-name="Layer 2">
    <g id="Isolation_Mode" data-name="Isolation Mode">
      <path class="cls-1"
        d="M71,80.79a44,44,0,0,1-18.32,0,30.27,30.27,0,0,0,6.67,15.91c-8.14,9.14-25.53,10-35.25,1.51,8.19,3.54,16.05,4,24.18,1a40.19,40.19,0,0,1-5.5-13.84A65.62,65.62,0,0,1,42,78a2.51,2.51,0,0,0-1.31-2.22C27.17,67.11,20.54,54.7,21.1,38.63,21.75,19.64,36.92,3,55.7.42c22.44-3.08,42.22,11.1,46.48,33.33.21,1.09.31,2.21.52,3.69A46.17,46.17,0,0,0,79.19,33l-.06-.49,11.33-1.61C88.46,22.71,79,11.74,64.9,10.58,50.32,9.37,37.7,17.59,33.09,31c-4.29,12.45.25,27.23,10.64,34.21A43.64,43.64,0,0,1,53.24,49a84.61,84.61,0,0,0-8.79-1.92,79.53,79.53,0,0,0-8.6-.07c-3.57-11.44,3.29-26.43,16.29-31.11A30.09,30.09,0,0,0,41.8,28.08C40.67,30.63,39.91,33.34,39,36c3.59.4,6.9.4,10,1.21a106.37,106.37,0,0,1,11.6,4.18,2.61,2.61,0,0,0,2.54.05c14-7.32,28.08-7.19,41.47,1.2s19.75,20.93,19.13,36.65C122.62,107.42,93,126,67.12,115c-.45-.19-.89-.44-1.6-.79A45.79,45.79,0,0,0,81,96.32l.46.22L77.3,106.92c8.23,2.52,22.82-.63,30.86-12.67A30.59,30.59,0,0,0,104.75,56C94.9,45.86,80,44.72,71.16,49.33c1.74,2.5,3.64,4.91,5.17,7.54s2.59,5.38,4,8.26A30.54,30.54,0,0,0,90.49,51.51c13.38,3.36,21.29,17.94,19.14,28.36-1.11-3.17-2.19-7-3.82-10.67a25.46,25.46,0,0,0-7.58-9.3c-1,1.5-1.77,2.89-2.68,4.22A38.94,38.94,0,0,1,83.19,75.76a2.62,2.62,0,0,0-1.45,2.52A40.85,40.85,0,0,1,.6,84C-1.92,68,3.53,54.82,16.18,44.64a10,10,0,0,1,1-.65c.92,3.83,1.55,7.67,2.79,11.3s3.07,7,4.46,10.63l-6.55-8.49c-8.07,7.81-9.87,23.05-4,34.06A30.46,30.46,0,0,0,47.48,107C60.14,104.1,70.39,92.82,71,80.79ZM53.31,70.08a30,30,0,0,0,17.18,0,30.3,30.3,0,0,0-8.61-14.9A30.11,30.11,0,0,0,53.31,70.08Z" />
    </g>
  </g>
</svg>