<svg xmlns="http://www.w3.org/2000/svg" xmlns:xlink="http://www.w3.org/1999/xlink" viewBox="0 0 513.97 215.44"><defs><style>.cls-1{fill:url(#linear-gradient);}.cls-2,.cls-3{fill:#fff;}.cls-3{font-size:92.46px;font-family:Arcane-Regular, Arcane;}.cls-4{letter-spacing:-0.02em;}.cls-5{letter-spacing:-0.04em;}.cls-6{letter-spacing:-0.03em;}</style><linearGradient id="linear-gradient" x1="61.88" y1="49.87" x2="61.88" y2="168.07" gradientUnits="userSpaceOnUse"><stop offset="0" stop-color="#fff"/><stop offset="1" stop-color="#b8b8b8"/></linearGradient></defs><g id="Layer_2" data-name="Layer 2"><g id="Isolation_Mode" data-name="Isolation Mode"><path class="cls-1" d="M71,130.66a44,44,0,0,1-18.32,0,30.27,30.27,0,0,0,6.67,15.91c-8.14,9.14-25.53,10-35.25,1.51,8.19,3.54,16.05,4,24.18.95a40.06,40.06,0,0,1-5.5-13.83A65.89,65.89,0,0,1,42,127.9a2.51,2.51,0,0,0-1.31-2.22C27.17,117,20.54,104.57,21.1,88.5c.65-19,15.82-35.63,34.6-38.21,22.44-3.08,42.22,11.1,46.48,33.33.21,1.09.31,2.21.52,3.69a46.07,46.07,0,0,0-23.51-4.49l-.06-.49,11.33-1.61C88.46,72.58,79,61.61,64.9,60.45c-14.58-1.21-27.2,7-31.81,20.39-4.29,12.44.25,27.23,10.64,34.21a43.64,43.64,0,0,1,9.51-16.2,84.61,84.61,0,0,0-8.79-1.92,79.53,79.53,0,0,0-8.6-.07c-3.57-11.44,3.29-26.43,16.29-31.11A30,30,0,0,0,41.8,78c-1.13,2.55-1.89,5.26-2.83,7.94,3.59.4,6.9.4,10,1.21a106.37,106.37,0,0,1,11.6,4.18,2.61,2.61,0,0,0,2.54,0c14-7.32,28.08-7.19,41.47,1.19s19.75,20.93,19.13,36.66c-1.09,28.11-30.73,46.69-56.59,35.68-.45-.2-.89-.44-1.6-.79A45.79,45.79,0,0,0,81,146.19l.46.22c-1.39,3.46-2.78,6.93-4.17,10.38,8.23,2.52,22.82-.63,30.86-12.68a30.58,30.58,0,0,0-3.41-38.25C94.9,95.73,80,94.59,71.16,99.2c1.74,2.49,3.64,4.9,5.17,7.54s2.59,5.38,4,8.26a30.54,30.54,0,0,0,10.21-13.62c13.38,3.36,21.29,17.94,19.14,28.36-1.11-3.17-2.19-7-3.82-10.67a25.46,25.46,0,0,0-7.58-9.3c-1,1.5-1.77,2.89-2.68,4.22a38.94,38.94,0,0,1-12.36,11.64,2.62,2.62,0,0,0-1.45,2.52A40.85,40.85,0,0,1,.6,133.9c-2.52-16,2.93-29.21,15.58-39.39a10,10,0,0,1,1-.65c.92,3.83,1.55,7.67,2.79,11.3s3.07,7,4.46,10.63l-6.55-8.49c-8.07,7.81-9.87,23-4,34.06a30.46,30.46,0,0,0,33.52,15.48C60.14,154,70.39,142.69,71,130.66ZM53.31,120a30,30,0,0,0,17.18,0A30.3,30.3,0,0,0,61.88,105,30.11,30.11,0,0,0,53.31,120Z"/><rect class="cls-2" x="156.9" y="21.52" width="2.94" height="182.81"/><text class="cls-3" transform="translate(188.78 78.59)"><tspan class="cls-4">a</tspan><tspan x="50.12" y="0">rc</tspan><tspan class="cls-5" x="145.07" y="0">a</tspan><tspan class="cls-6" x="193.34" y="0">n</tspan><tspan x="246.88" y="0">e </tspan><tspan x="0" y="110.96">fusion</tspan></text></g></g></svg>