<svg id="Isolation_Mode" data-name="Isolation Mode" xmlns="http://www.w3.org/2000/svg" xmlns:xlink="http://www.w3.org/1999/xlink" viewBox="0 0 289.63 276.65"><defs><style>.cls-1{fill:url(#linear-gradient);}</style><linearGradient id="linear-gradient" x1="340.5" y1="308.64" x2="340.5" y2="585.29" gradientUnits="userSpaceOnUse"><stop offset="0" stop-color="#fff"/><stop offset="1" stop-color="#fff"/></linearGradient></defs><path class="cls-1" d="M361.9,497.72a103,103,0,0,1-42.89,0c1.38,14.37,7.21,26.38,15.61,37.23-19.05,21.4-59.75,23.48-82.49,3.53,19.17,8.3,37.57,9.31,56.6,2.24-6.23-10.29-10.85-20.87-12.87-32.39a152,152,0,0,1-1.9-17,5.84,5.84,0,0,0-3.07-5.2c-31.61-20.37-47.13-49.42-45.84-87,1.53-44.45,37-83.4,81-89.44,52.51-7.21,98.81,26,108.76,78,.49,2.56.74,5.17,1.22,8.64-17.87-8.35-36-12-55-10.52l-.15-1.15,26.53-3.75c-4.7-19.07-26.74-44.72-59.83-47.46-34.12-2.82-63.65,16.41-74.44,47.74-10,29.12.57,63.73,24.9,80.06a101.73,101.73,0,0,1,22.25-37.91c-7.58-1.72-14-3.77-20.57-4.49s-13.41-.17-20.13-.17c-8.36-26.77,7.71-61.85,38.13-72.81-11,8-19.15,17.12-24.2,28.55-2.64,6-4.43,12.31-6.63,18.57,8.4.94,16.15.94,23.4,2.84,9.28,2.43,18.2,6.27,27.16,9.79,2.17.85,3.64,1.32,5.94.12,32.85-17.13,65.72-16.83,97.06,2.79s46.21,49,44.78,85.78c-2.57,65.79-71.93,109.28-132.44,83.51-1.07-.45-2.1-1-3.76-1.84a107.24,107.24,0,0,0,36.26-41.85l1.08.51q-4.89,12.17-9.76,24.3c19.24,5.9,53.39-1.49,72.23-29.67a71.6,71.6,0,0,0-8-89.53c-23-23.71-57.91-26.38-78.61-15.6,4.06,5.85,8.52,11.49,12.08,17.65s6.08,12.6,9.25,19.34c11.15-8.17,18.78-19.13,23.91-31.88,31.31,7.87,49.81,42,44.78,66.38-2.6-7.42-5.13-16.48-8.93-25S433.18,455,425.58,448.83c-2.23,3.51-4.16,6.76-6.29,9.87A91.2,91.2,0,0,1,390.39,486a6.13,6.13,0,0,0-3.41,5.9A95.64,95.64,0,0,1,298.17,585c-48.85,3.66-93.39-30.87-101.08-79.67-5.91-37.45,6.85-68.36,36.46-92.18A21,21,0,0,1,236,411.6c2.15,9,3.63,17.94,6.53,26.44s7.17,16.26,10.44,24.87L237.61,443c-18.88,18.29-23.08,53.95-9.25,79.72A71.29,71.29,0,0,0,306.8,559C336.44,552.28,360.42,525.88,361.9,497.72Zm-41.45-25.06a70.21,70.21,0,0,0,40.21-.07,71,71,0,0,0-20.15-34.87A70.34,70.34,0,0,0,320.45,472.66Z" transform="translate(-195.68 -308.64)"/></svg>